<?xml version="1.0" standalone="no"?>
<!DOCTYPE svg PUBLIC "-//W3C//DTD SVG 20010904//EN"
 "http://www.w3.org/TR/2001/REC-SVG-20010904/DTD/svg10.dtd">
<svg version="1.0" xmlns="http://www.w3.org/2000/svg"
 width="132.000000pt" height="120.000000pt" viewBox="0 0 132.000000 120.000000"
 preserveAspectRatio="xMidYMid meet">

<g transform="translate(0.000000,120.000000) scale(0.100000,-0.100000)"
fill="#000000" stroke="none">
<path d="M504 1106 c-28 -13 -64 -39 -80 -58 -20 -25 -41 -37 -69 -43 -49 -9
-122 -78 -131 -124 -5 -21 -15 -36 -30 -41 -12 -5 -28 -19 -34 -31 -12 -21
-10 -80 4 -111 6 -12 0 -21 -23 -33 -34 -17 -43 -55 -13 -55 15 0 17 -10 17
-78 0 -167 86 -231 273 -205 57 8 82 18 110 40 52 42 84 105 91 177 6 59 7 61
37 64 l31 3 5 -65 c10 -116 76 -197 178 -216 203 -38 307 38 299 219 -2 46 0
57 14 59 28 6 20 40 -13 57 -26 14 -29 19 -20 36 6 11 12 39 12 62 0 35 -5 45
-36 72 -20 16 -36 38 -36 48 0 9 -21 39 -47 66 -35 36 -59 51 -87 57 -26 4
-49 18 -73 45 -61 68 -160 99 -209 65 -17 -12 -22 -12 -39 0 -28 20 -73 17
-131 -10z m115 -53 c5 -10 12 -58 16 -107 4 -49 11 -101 15 -115 l7 -26 13 30
c6 17 15 71 19 122 3 51 11 97 17 103 15 15 80 -7 117 -40 18 -16 27 -30 20
-30 -12 0 -63 -67 -63 -83 0 -5 13 1 29 12 69 50 119 49 177 -1 34 -30 68 -78
45 -64 -14 9 -73 -22 -66 -35 4 -5 1 -8 -6 -7 -7 2 -14 -5 -17 -14 -3 -15 6
-17 74 -15 85 2 102 -9 90 -56 l-6 -26 -43 15 c-70 25 -183 29 -257 9 -36 -9
-105 -18 -155 -20 -49 -1 -94 -4 -100 -6 -5 -2 -41 4 -80 13 -99 23 -245 34
-245 18 0 -8 11 -10 32 -5 l33 6 -34 -16 c-18 -8 -35 -15 -37 -15 -2 0 -3 19
-1 43 l2 42 75 1 c41 0 78 1 83 2 4 1 -6 21 -23 44 -16 22 -30 48 -30 57 0 12
-3 12 -12 3 -9 -9 -7 -19 10 -42 l23 -30 -35 17 -35 16 21 29 c11 16 23 27 25
24 3 -3 14 6 25 19 10 13 35 27 54 31 29 5 44 1 86 -25 28 -18 53 -29 56 -26
4 3 0 20 -7 38 -25 61 -25 91 1 104 20 10 43 17 70 22 4 0 11 -7 17 -16z
m-116 -83 c6 -8 0 -5 -12 6 -16 15 -21 27 -15 35 7 11 9 9 12 -6 2 -11 9 -27
15 -35z m374 -246 c-3 -3 -12 -4 -19 -1 -8 3 -5 6 6 6 11 1 17 -2 13 -5z m-96
-34 c-55 -26 -69 -29 -95 -20 -21 7 -39 7 -62 0 -24 -8 -39 -8 -54 0 -23 12
-27 22 -5 14 8 -3 30 -1 50 6 26 9 44 9 66 1 24 -8 41 -7 82 8 80 29 89 24 18
-9z m-300 -45 c26 -9 56 -27 69 -39 18 -21 21 -31 15 -70 -8 -52 -36 -99 -77
-129 -35 -26 -188 -36 -228 -15 -54 29 -79 152 -45 218 9 17 17 30 18 30 1 0
20 7 42 15 47 18 137 14 206 -10z m553 12 c55 -17 79 -53 79 -119 -1 -79 -27
-134 -70 -149 -54 -17 -187 -7 -220 17 -52 39 -68 71 -68 136 0 53 3 63 25 79
55 41 179 58 254 36z"/>
<path d="M332 568 c-7 -7 -12 -24 -12 -38 0 -14 5 -31 12 -38 18 -18 63 -14
81 6 21 23 23 56 3 49 -16 -6 -40 16 -29 26 3 4 -5 7 -18 7 -14 0 -30 -5 -37
-12z"/>
<path d="M897 562 c-22 -24 -21 -45 1 -65 32 -30 92 -17 92 20 0 16 -47 63
-64 63 -7 0 -20 -8 -29 -18z"/>
<path d="M323 259 c-16 -16 -5 -39 17 -39 25 0 35 18 20 35 -15 18 -22 19 -37
4z"/>
<path d="M600 240 c0 -26 -3 -30 -29 -30 -35 0 -52 -19 -53 -59 -1 -47 17 -61
78 -61 l54 0 0 90 c0 89 0 90 -25 90 -21 0 -25 -5 -25 -30z m-5 -90 c0 -13 -6
-25 -12 -27 -9 -3 -13 6 -13 27 0 21 4 30 13 28 6 -3 12 -15 12 -28z"/>
<path d="M1087 263 c-4 -3 -7 -44 -7 -90 0 -82 0 -83 25 -83 19 0 25 5 25 22
l0 21 23 -21 c13 -12 33 -22 46 -22 l22 0 -22 31 c-20 29 -21 32 -6 41 17 9
24 48 10 48 -5 0 -23 -9 -40 -20 l-33 -20 0 50 c0 42 -3 50 -18 50 -10 0 -22
-3 -25 -7z"/>
<path d="M110 148 c0 -55 1 -58 25 -58 23 0 25 4 25 46 0 27 4 43 10 39 6 -3
10 -24 10 -46 0 -35 3 -39 25 -39 23 0 25 4 25 46 0 27 4 43 10 39 6 -3 10
-24 10 -46 0 -35 3 -39 25 -39 23 0 25 3 25 49 0 27 -6 53 -12 59 -7 5 -50 10
-95 9 l-83 0 0 -59z"/>
<path d="M320 150 c0 -53 2 -60 20 -60 18 0 20 7 20 60 0 53 -2 60 -20 60 -18
0 -20 -7 -20 -60z"/>
<path d="M380 149 c0 -52 2 -59 20 -59 16 0 20 7 20 34 0 39 24 67 34 40 3 -8
6 -29 6 -45 0 -23 5 -29 20 -29 19 0 21 5 18 58 l-3 57 -57 2 -58 1 0 -59z"/>
<path d="M676 188 c-33 -47 -4 -106 49 -96 16 4 24 1 22 -6 -2 -6 -21 -10 -41
-10 -29 1 -36 -2 -34 -15 4 -22 76 -27 103 -7 17 12 20 26 20 83 l0 68 -52 3
c-44 3 -53 0 -67 -20z m69 -38 c0 -13 -6 -25 -12 -27 -16 -6 -27 21 -19 43 9
23 31 11 31 -16z"/>
<path d="M827 192 c-34 -37 -16 -96 32 -107 30 -6 71 8 71 25 0 6 -16 10 -35
10 -47 0 -45 17 4 22 34 3 40 0 48 -23 12 -31 60 -47 92 -29 32 16 25 30 -14
30 -19 0 -35 5 -35 10 0 6 18 10 40 10 44 0 50 11 24 48 -21 31 -77 30 -101
-2 l-18 -23 -10 21 c-14 29 -75 34 -98 8z m63 -22 c0 -5 -7 -10 -15 -10 -8 0
-15 5 -15 10 0 6 7 10 15 10 8 0 15 -4 15 -10z m130 0 c0 -5 -7 -10 -16 -10
-8 0 -12 5 -9 10 3 6 10 10 16 10 5 0 9 -4 9 -10z"/>
</g>
</svg>
